<svg width="143" height="29" fill="none" xmlns="http://www.w3.org/2000/svg"><g opacity=".6" fill="#1D2130"><path d="M21.356 13.139a3.838 3.838 0 00-1.098 3.075l-.019-.019a4.564 4.564 0 01-2.977 4.667 4.555 4.555 0 01-1.95.262l.02.019a3.86 3.86 0 00-4.16 4.511 3.862 3.862 0 005.445 2.828 3.86 3.86 0 002.2-3.855l.02.018a4.564 4.564 0 012.977-4.667 4.558 4.558 0 011.95-.261l-.02-.02a3.851 3.851 0 004.152-3.249 3.855 3.855 0 00-4.89-4.288 3.851 3.851 0 00-1.647.979h-.003z"/><path d="M13.614 18.667l-.02-.02a3.81 3.81 0 004.174-4.172l.02.019a4.564 4.564 0 012.977-4.667 4.557 4.557 0 011.949-.262l-.02-.019a3.858 3.858 0 004.163-4.51 3.863 3.863 0 00-3.138-3.139 3.858 3.858 0 00-4.507 4.165l-.02-.02a4.562 4.562 0 01-4.925 4.93l.018.02a3.807 3.807 0 00-3.97 2.51c-.19.532-.26 1.1-.203 1.662l-.02-.019a4.564 4.564 0 01-4.926 4.929l.02.019a3.859 3.859 0 00-4.164 4.51 3.862 3.862 0 005.445 2.83 3.86 3.86 0 002.2-3.857l.02.02a4.563 4.563 0 014.927-4.93z"/><path d="M6.58 16.56a3.835 3.835 0 001.097-3.076l.02.019a4.563 4.563 0 012.978-4.668 4.557 4.557 0 011.95-.26l-.02-.02a3.857 3.857 0 004.162-4.508 3.861 3.861 0 00-5.443-2.83 3.86 3.86 0 00-2.201 3.854l-.019-.019a4.563 4.563 0 01-4.926 4.93l.019.018a3.851 3.851 0 00-4.152 3.25 3.856 3.856 0 002.977 4.353 3.85 3.85 0 003.56-1.044H6.58zM39.09 6.087h3.117v15.175H39.09V6.087zm4.882 9.979a5.511 5.511 0 013.384-5.106 5.505 5.505 0 017.522 4 5.512 5.512 0 01-2.338 5.663 5.504 5.504 0 01-3.061.93 5.441 5.441 0 01-5.098-3.376 5.45 5.45 0 01-.409-2.111zm7.896 0a2.393 2.393 0 00-2.896-2.271 2.39 2.39 0 00-.815 4.33c.392.26.852.399 1.322.399a2.33 2.33 0 002.39-2.458zm15.54-5.198v9.87c0 3.493-2.722 4.969-5.486 4.969a5.31 5.31 0 01-4.924-2.52l2.66-1.538a2.374 2.374 0 002.368 1.31 2.07 2.07 0 002.348-2.225v-.95a3.69 3.69 0 01-3.034 1.351 5.279 5.279 0 01-5.114-5.28 5.284 5.284 0 015.114-5.28 3.688 3.688 0 013.034 1.352v-1.06l3.034.001zm-3.033 4.989a2.522 2.522 0 00-2.944-2.588 2.518 2.518 0 00-1.908 3.425 2.52 2.52 0 002.339 1.578 2.348 2.348 0 002.34-1.456 2.35 2.35 0 00.173-.96zm4.798.209a5.51 5.51 0 016.568-5.428 5.506 5.506 0 014.338 4.323 5.512 5.512 0 01-2.337 5.662 5.504 5.504 0 01-3.062.93 5.44 5.44 0 01-5.098-3.376 5.45 5.45 0 01-.409-2.111zm7.897 0a2.392 2.392 0 10-2.39 2.458 2.33 2.33 0 002.39-2.458zm4.57-7.983a1.872 1.872 0 013.193-1.323 1.872 1.872 0 01-1.323 3.194 1.888 1.888 0 01-1.87-1.871zm.315 2.785h3.118v10.395h-3.122l.004-10.395zm16.577 5.198a5.222 5.222 0 01-4.966 5.487 3.896 3.896 0 01-3.095-1.268v5.135h-3.117V10.868h3.117v.977a3.9 3.9 0 013.094-1.268 5.215 5.215 0 014.967 5.489zm-3.117 0a2.475 2.475 0 00-2.993-2.357 2.472 2.472 0 00-1.757 3.38 2.474 2.474 0 002.278 1.513 2.372 2.372 0 002.472-2.536zm12.735 2.078c0 2.39-2.077 3.41-4.321 3.41a4.547 4.547 0 01-4.467-2.475l2.7-1.538a1.707 1.707 0 001.763 1.226c.747 0 1.122-.228 1.122-.643 0-1.145-5.112-.54-5.112-4.137 0-2.267 1.912-3.41 4.073-3.41a4.541 4.541 0 014.051 2.224l-2.659 1.435a1.513 1.513 0 00-1.392-.915c-.54 0-.873.21-.873.582.004 1.185 5.115.395 5.115 4.24zm11.386-7.276v10.395h-3.117v-.977a3.553 3.553 0 01-2.97 1.268c-2.099 0-3.883-1.496-3.883-4.305v-6.38h3.117v5.924c-.026.247.002.497.082.733a1.723 1.723 0 00.996 1.041c.232.091.481.13.729.116 1.143 0 1.932-.665 1.932-2.142v-5.67l3.114-.003zm17.873 4.012v6.382h-3.117V15.15c0-1.04-.499-1.704-1.496-1.704-1.039 0-1.621.728-1.621 1.954v5.862h-3.116V15.15c0-1.04-.499-1.704-1.497-1.704-1.039 0-1.62.728-1.62 1.954v5.862h-3.117V10.867h3.117v.956a3.185 3.185 0 012.784-1.247 3.091 3.091 0 012.722 1.372 3.425 3.425 0 013.013-1.372c2.385.002 3.948 1.706 3.948 4.304zm2.636-4.076a2.313 2.313 0 100-4.626 2.313 2.313 0 000 4.626z"/></g></svg>