<svg width="138" height="32" fill="none" xmlns="http://www.w3.org/2000/svg"><path d="M33.648 7.635h3.166v15.317h-3.166V7.635zm4.938 10.07c0-1.102.326-2.18.936-3.095a5.544 5.544 0 012.491-2.05 5.515 5.515 0 016.04 1.221 5.59 5.59 0 011.18 6.075 5.559 5.559 0 01-2.053 2.492 5.52 5.52 0 01-3.086.922 5.445 5.445 0 01-3.918-1.62 5.492 5.492 0 01-1.59-3.945zm7.935 0a2.423 2.423 0 00-1.528-2.187 2.396 2.396 0 00-2.6.564 2.42 2.42 0 00-.494 2.626 2.398 2.398 0 002.216 1.478 2.333 2.333 0 001.73-.719 2.355 2.355 0 00.655-1.762h.02zm15.605-5.247v9.975c0 3.519-2.743 5.013-5.518 5.013a5.256 5.256 0 01-2.835-.564 5.286 5.286 0 01-2.114-1.98l2.67-1.547a2.386 2.386 0 002.385 1.325 2.1 2.1 0 001.708-.565 2.12 2.12 0 00.655-1.682v-.965a3.725 3.725 0 01-3.05 1.357 5.267 5.267 0 01-3.73-1.552 5.313 5.313 0 01-1.545-3.748c0-1.406.556-2.754 1.545-3.748a5.264 5.264 0 013.73-1.552 3.71 3.71 0 013.05 1.357v-1.06l3.049-.064zm-3.05 5.035a2.553 2.553 0 00-.374-1.441 2.521 2.521 0 00-3.908-.502 2.548 2.548 0 00-.597 2.784 2.524 2.524 0 002.348 1.597 2.352 2.352 0 001.805-.654 2.375 2.375 0 00.727-1.784zm4.834.212c0-1.101.324-2.177.933-3.093a5.545 5.545 0 012.488-2.05 5.515 5.515 0 016.038 1.212 5.588 5.588 0 011.194 6.068 5.56 5.56 0 01-2.045 2.495 5.522 5.522 0 01-3.08.933 5.454 5.454 0 01-3.93-1.615 5.504 5.504 0 01-1.599-3.95zm7.934 0a2.424 2.424 0 00-1.531-2.188 2.395 2.395 0 00-2.601.569 2.42 2.42 0 00-.487 2.629 2.398 2.398 0 002.223 1.47 2.334 2.334 0 001.73-.718 2.355 2.355 0 00.655-1.762h.01zm4.589-8.056a1.893 1.893 0 011.16-1.743 1.87 1.87 0 012.046.409 1.89 1.89 0 01-1.328 3.22 1.895 1.895 0 01-1.322-.558 1.912 1.912 0 01-.556-1.328zm.306 2.809h3.166v10.494h-3.166V12.458zm16.713 5.247a5.323 5.323 0 01-1.364 3.834 5.277 5.277 0 01-3.669 1.731 3.909 3.909 0 01-3.165-1.283v5.184H82.09V12.458h3.165v.986a3.913 3.913 0 013.165-1.272 5.256 5.256 0 013.657 1.72 5.306 5.306 0 011.376 3.813zm-3.165 0a2.51 2.51 0 00-.45-1.373 2.479 2.479 0 00-3.825-.306 2.506 2.506 0 00-.506 2.721 2.5 2.5 0 00.922 1.11c.41.272.89.415 1.38.413a2.374 2.374 0 001.811-.724 2.396 2.396 0 00.668-1.841zm12.798 2.099c0 2.417-2.11 3.445-4.347 3.445a4.562 4.562 0 01-2.63-.558 4.592 4.592 0 01-1.864-1.944l2.722-1.547a1.704 1.704 0 001.762 1.24c.749 0 1.129-.233 1.129-.657 0-1.156-5.139-.541-5.139-4.177 0-2.29 1.92-3.434 4.094-3.434a4.583 4.583 0 014.136 2.237l-2.722 1.441a1.543 1.543 0 00-1.403-.922c-.549 0-.876.212-.876.583 0 1.208 5.138.413 5.138 4.293zm11.469-7.346v10.494h-3.165v-.986a3.593 3.593 0 01-2.975 1.304c-2.111 0-3.915-1.516-3.915-4.346v-6.466h3.166v5.989a1.742 1.742 0 001.091 1.792c.234.091.484.131.734.116 1.139 0 1.941-.678 1.941-2.12v-5.777h3.123zm17.937 4.049v6.445h-3.165v-6.17c0-1.06-.496-1.716-1.498-1.716-1.003 0-1.636.731-1.636 1.971v5.915h-3.165v-6.17c0-1.06-.496-1.716-1.498-1.716-1.003 0-1.636.731-1.636 1.971v5.915h-3.165V12.458h3.165v.965a3.233 3.233 0 012.807-1.251 3.08 3.08 0 012.733 1.378 3.44 3.44 0 013.028-1.378c2.469 0 4.03 1.717 4.03 4.335zM14.794 4.879V.374H.655v30.952h14.139v-4.505a10.895 10.895 0 01-7.722-3.213 10.997 10.997 0 01-3.199-7.758c0-2.91 1.15-5.7 3.199-7.758a10.895 10.895 0 017.722-3.213zm0 0v21.942c2.896 0 5.673-1.156 7.721-3.213a10.997 10.997 0 003.199-7.758c0-2.91-1.15-5.7-3.199-7.758a10.895 10.895 0 00-7.721-3.213zm120.356 7.515a2.327 2.327 0 002.322-2.332 2.327 2.327 0 00-2.322-2.332 2.326 2.326 0 00-2.321 2.332 2.326 2.326 0 002.321 2.332z" opacity=".6" fill="#1D2130"/></svg>