<svg width="124" height="26" fill="none" xmlns="http://www.w3.org/2000/svg"><path d="M40.09 20.543a2.8 2.8 0 01-1.753-.499 1.627 1.627 0 01-.661-1.362V9.04a.268.268 0 01.182-.29.275.275 0 01.122-.012h1.763c.2 0 .294.104.294.302v8.892c0 .395.179.593.546.593.156.006.311-.011.462-.052.21 0 .325.062.335.25l.158 1.3a.266.266 0 01-.052.217.274.274 0 01-.2.105 3.99 3.99 0 01-1.196.197zm9.917-1.113a4.97 4.97 0 01-3.148 1.123 4.97 4.97 0 01-3.149-1.123 4.141 4.141 0 01-1.215-2.927c0-1.097.437-2.149 1.215-2.928a4.996 4.996 0 016.297 0 4.203 4.203 0 011.186 2.923 4.2 4.2 0 01-1.186 2.922v.01zm-4.639-1.372a2.247 2.247 0 003.002 0 2.317 2.317 0 000-3.058 2.247 2.247 0 00-3.002 0 2.318 2.318 0 000 3.058zM60.9 12.723c.2 0 .294.103.294.301v7.457a3.364 3.364 0 01-1.164 2.673 4.434 4.434 0 01-3.054 1.04c-1.007.035-2-.238-2.844-.78a3.117 3.117 0 01-.906-.899 3.103 3.103 0 01-.47-1.181c0-.208 0-.302.284-.302h1.763a.39.39 0 01.347.24c.114.315.342.578.64.738.363.185.767.278 1.175.27a1.873 1.873 0 001.354-.478 1.767 1.767 0 00.493-1.3v-.655c-.631.46-1.4.697-2.183.675a4.106 4.106 0 01-2.98-1.133 4.14 4.14 0 01-1.18-2.891 4.14 4.14 0 011.18-2.892 4.134 4.134 0 012.98-1.123 3.548 3.548 0 012.236.718v-.167a.268.268 0 01.175-.285.275.275 0 01.118-.016l1.743-.01zm-4.07 5.947a1.862 1.862 0 001.438-.613 2.533 2.533 0 000-3.12 1.836 1.836 0 00-1.428-.604 1.903 1.903 0 00-1.459.614 2.19 2.19 0 00-.566 1.56c-.02.568.18 1.121.556 1.55a1.9 1.9 0 001.459.613zm13.421.76a4.992 4.992 0 01-6.297 0 4.213 4.213 0 01-1.186-2.927c0-1.091.425-2.14 1.187-2.928.888-.72 2-1.113 3.148-1.113 1.148 0 2.26.393 3.148 1.113a4.202 4.202 0 011.186 2.923 4.2 4.2 0 01-1.186 2.922v.01zm-4.649-1.372a2.101 2.101 0 001.511.572 2.115 2.115 0 001.501-.572 2.348 2.348 0 000-3.058 2.102 2.102 0 00-1.5-.572 2.115 2.115 0 00-1.512.572 2.348 2.348 0 000 3.058zm9.624-7.104a1.53 1.53 0 01-2.004 0 1.259 1.259 0 01-.399-.915 1.248 1.248 0 01.399-.915 1.562 1.562 0 012.004 0 1.26 1.26 0 01.398.915 1.249 1.249 0 01-.398.915zm.22 9.59a2.842 2.842 0 01-1.752-.5 1.646 1.646 0 01-.65-1.362v-5.658a.268.268 0 01.181-.289.275.275 0 01.122-.012h1.764c.199 0 .293.103.293.301v4.909c0 .395.179.593.536.593.159.005.318-.012.472-.052.21 0 .325.062.336.25l.157 1.3a.267.267 0 01-.14.291.274.274 0 01-.112.03c-.39.128-.797.195-1.207.198zm7.944-8.071a4.15 4.15 0 013.002 1.123 4.243 4.243 0 011.155 2.907 4.242 4.242 0 01-1.155 2.907 4.087 4.087 0 01-3.001 1.133 3.632 3.632 0 01-2.194-.676v3.755c0 .197-.104.29-.304.29H79.13a.254.254 0 01-.287-.17.248.248 0 01-.007-.12v-8.528a.535.535 0 00-.154-.461.547.547 0 00-.465-.153h-.346c-.231 0-.347-.083-.347-.25v-1.227a.33.33 0 01.242-.343 3.19 3.19 0 011.133-.187c.385-.034.772.047 1.11.232.339.186.614.467.79.808a3.54 3.54 0 012.592-1.04zm-1.636 5.585a2.004 2.004 0 001.448.613 2.02 2.02 0 001.448-.613 2.234 2.234 0 00.578-1.591 2.203 2.203 0 00-.578-1.592 2.005 2.005 0 00-1.448-.613 2.021 2.021 0 00-1.448.613 2.286 2.286 0 00-.556 1.591 2.315 2.315 0 00.556 1.592zM92.5 20.543a5.096 5.096 0 01-2.697-.645 2.551 2.551 0 01-.82-.782 2.524 2.524 0 01-.397-1.058c0-.208.073-.312.304-.312h1.543a.402.402 0 01.346.229c.22.561.798.842 1.721.842.322.014.643-.05.934-.187a.608.608 0 00.357-.51c0-.27-.168-.457-.504-.582a5.722 5.722 0 00-1.228-.26 11.773 11.773 0 01-1.469-.26 2.42 2.42 0 01-1.228-.697 2.221 2.221 0 01-.481-1.71 2.213 2.213 0 01.933-1.514 4.353 4.353 0 012.54-.666 4.671 4.671 0 012.476.614 2.332 2.332 0 011.154 1.633c0 .208-.094.312-.283.312h-1.553a.328.328 0 01-.315-.188 1.044 1.044 0 00-.546-.55 1.861 1.861 0 00-.902-.209 1.84 1.84 0 00-.892.177.524.524 0 00-.336.478.663.663 0 00.504.614c.403.15.822.255 1.248.312.491.064.978.154 1.46.27.47.106.897.349 1.227.697a1.963 1.963 0 01.514 1.425c.01.36-.076.715-.247 1.032a2.088 2.088 0 01-.729.778 4.618 4.618 0 01-2.634.717zm14.703-.52a.277.277 0 01-.135.286.291.291 0 01-.106.037c-.383.124-.783.19-1.186.197a2.348 2.348 0 01-2.099-.904 3.82 3.82 0 01-2.676.904 3.28 3.28 0 01-2.456-.946 3.406 3.406 0 01-.934-2.507v-4.066c0-.197.095-.301.294-.301h1.763c.2 0 .294.103.294.301v3.755c-.02.467.142.925.451 1.279a1.583 1.583 0 001.207.489 1.755 1.755 0 001.26-.458 1.656 1.656 0 00.472-1.238v-3.827c0-.197.094-.301.294-.301h1.784c.199 0 .294.103.294.301v4.899c0 .405.178.603.524.603.163.006.326-.012.483-.052a.277.277 0 01.234.041.26.26 0 01.08.092c.02.036.031.076.032.116l.126 1.3zm16.676 0c.01.038.011.076.003.114a.25.25 0 01-.046.104.264.264 0 01-.198.105 4.12 4.12 0 01-1.207.197 2.818 2.818 0 01-1.752-.499 1.614 1.614 0 01-.704-1.362v-2.444a1.827 1.827 0 00-.44-1.28 1.493 1.493 0 00-1.176-.488 1.325 1.325 0 00-1.049.457 1.84 1.84 0 00-.399 1.227v3.838c0 .198-.094.302-.294.302h-1.774a.273.273 0 01-.304-.302v-3.754a1.911 1.911 0 00-.409-1.28 1.36 1.36 0 00-1.05-.488 1.532 1.532 0 00-1.154.457c-.3.338-.455.778-.43 1.227v3.838a.277.277 0 01-.078.225.28.28 0 01-.227.077h-1.71c-.2 0-.294-.104-.294-.302v-4.898a.537.537 0 00-.369-.592.547.547 0 00-.25-.022h-.347c-.231 0-.346-.083-.346-.25v-1.227a.339.339 0 01.059-.214.34.34 0 01.182-.129 3.18 3.18 0 011.134-.187 1.986 1.986 0 011.868.957 3.58 3.58 0 012.666-.957 3.035 3.035 0 012.487 1.102 3.463 3.463 0 011.249-.857 3.48 3.48 0 011.5-.245 3.345 3.345 0 012.488.946 3.374 3.374 0 01.934 2.507v2.007c0 .395.178.593.514.593.163.007.325-.01.483-.052.217 0 .332.083.346.25l.094 1.3zM.818 11.37a14.227 14.227 0 015.095-7.78A14.451 14.451 0 0114.76.57c3.207 0 6.321 1.064 8.848 3.02a14.226 14.226 0 015.094 7.78h-1.26a10.235 10.235 0 00-5.95 1.8c-.1.072-.206.138-.315.197h-.147a3.018 3.018 0 01-.315-.197 10.742 10.742 0 00-5.955-1.8c-2.122 0-4.195.627-5.956 1.8a3.01 3.01 0 01-.315.197h-.147a3.01 3.01 0 01-.315-.197 10.235 10.235 0 00-5.95-1.8H.818zm24.359 6.521a3.557 3.557 0 012.267-.738h1.69v-3.338h-1.69a6.738 6.738 0 00-4.02 1.268 3.843 3.843 0 01-4.534 0 7.182 7.182 0 00-4.077-1.268c-1.458 0-2.88.443-4.077 1.268a3.843 3.843 0 01-4.534 0 6.738 6.738 0 00-4.072-1.268H.388v3.338h1.69c.819-.022 1.62.24 2.267.738a7.16 7.16 0 004.072 1.27 7.16 7.16 0 004.072-1.27 3.579 3.579 0 012.266-.738 3.537 3.537 0 012.267.738A7.182 7.182 0 0021.1 19.16a7.18 7.18 0 004.077-1.268zm0 5.97a3.557 3.557 0 012.267-.738h1.69v-3.339h-1.69a6.737 6.737 0 00-4.02 1.269 3.844 3.844 0 01-4.534 0 7.182 7.182 0 00-4.077-1.268c-1.458 0-2.88.443-4.077 1.268a3.844 3.844 0 01-4.534 0 6.737 6.737 0 00-4.072-1.269H.388v3.339h1.69a3.556 3.556 0 012.267.738 7.16 7.16 0 004.072 1.269 7.16 7.16 0 004.072-1.269 3.579 3.579 0 012.266-.738 3.537 3.537 0 012.267.738 7.182 7.182 0 004.078 1.268c1.457 0 2.88-.443 4.077-1.268z" opacity=".6" fill="#1D2130"/></svg>