<svg width="20" height="20" fill="none" xmlns="http://www.w3.org/2000/svg"><path d="M17.874 14.164v.979c0 .648-.43 1.202-1.034 1.418v2.743c1.255-.247 2.2-1.305 2.2-2.57v-2.57h-1.166zM9.768 6.807V5.784a3.55 3.55 0 00-.974-2.419 3.66 3.66 0 00-2.196-1.142A458.27 458.27 0 005.04.799L4.804.587C4.678.476 4.444.27 4.096.403l-.373.143.05 2.199-.092.062c-.599.411-1 1.044-1.103 1.738L.982 5.556l-.005.695c-.004.53.21 1.03.603 1.406a2.12 2.12 0 001.475.583h1.216v1.02c0 .505.085 1.006.254 1.486l.9 2.568v3.901c-.945.212-1.652 1.02-1.654 1.98l-.002.162h3.48c.095-.865.763-1.572 1.637-1.77v-.68c0-1.86 1.593-3.375 3.552-3.375h.086v1.109h-.086c-1.315 0-2.385 1.017-2.385 2.267v1.734H9.38a.97.97 0 00-.952.716l7.28.001v-2.724c0-2.42-.956-4.73-2.69-6.503l-3.25-3.325z" fill="#DDFFDF"/></svg>