<svg width="18" height="14" fill="none" xmlns="http://www.w3.org/2000/svg"><path d="M17.797 12.8a3.118 3.118 0 01-.724-.702c-.483-.548-1.097-1.229-2.238-1.229s-1.733.659-2.238 1.251c-.505.593-.834.944-1.58.944-.746 0-1.119-.417-1.58-.944-.46-.526-1.075-1.25-2.238-1.25-1.162 0-1.733.658-2.238 1.25-.504.593-.833.944-1.58.944-.745 0-1.118-.417-1.579-.944a3.73 3.73 0 00-1.163-1.01.442.442 0 00-.395.79c.345.208.65.476.9.79.504.593 1.097 1.251 2.238 1.251 1.14 0 1.733-.658 2.238-1.25.504-.593.833-.944 1.58-.944.745 0 1.118.417 1.58.944.46.526 1.074 1.25 2.237 1.25s1.734-.658 2.238-1.25c.505-.593.834-.944 1.58-.944.746 0 1.119.417 1.58.944.255.328.559.616.9.855a.444.444 0 10.482-.746zm0-3.29a3.117 3.117 0 01-.724-.703c-.483-.548-1.097-1.229-2.238-1.229s-1.733.659-2.238 1.251c-.505.592-.834.943-1.58.943-.746 0-1.119-.416-1.58-.943-.46-.527-1.075-1.25-2.238-1.25-1.162 0-1.733.658-2.238 1.25-.504.592-.833.943-1.58.943-.745 0-1.118-.416-1.579-.943a3.73 3.73 0 00-1.163-1.01.442.442 0 10-.395.79c.345.208.65.476.9.79.504.593 1.097 1.251 2.238 1.251 1.14 0 1.733-.658 2.238-1.25.504-.593.833-.944 1.58-.944.745 0 1.118.417 1.58.943.46.527 1.074 1.251 2.237 1.251s1.734-.658 2.238-1.25c.505-.593.834-.944 1.58-.944.746 0 1.119.417 1.58.943.255.329.559.617.9.856a.444.444 0 10.482-.746zm0-3.512a3.117 3.117 0 01-.724-.702c-.483-.548-1.097-1.228-2.238-1.228s-1.733.658-2.238 1.25c-.505.593-.834.944-1.58.944-.746 0-1.119-.417-1.58-.944-.46-.526-1.075-1.25-2.238-1.25-1.162 0-1.733.658-2.238 1.25-.504.593-.833.944-1.58.944-.745 0-1.118-.417-1.579-.944A3.73 3.73 0 00.639 4.31a.442.442 0 10-.395.79c.345.208.65.475.9.79.504.592 1.097 1.25 2.238 1.25 1.14 0 1.733-.658 2.238-1.25.504-.593.833-.944 1.58-.944.745 0 1.118.417 1.58.944.46.526 1.074 1.25 2.237 1.25s1.734-.658 2.238-1.25c.505-.593.834-.944 1.58-.944.746 0 1.119.417 1.58.944.255.328.559.616.9.855a.444.444 0 10.482-.746zM.244 1.808c.345.207.65.475.9.79.505.592 1.097 1.25 2.238 1.25 1.14 0 1.733-.658 2.238-1.25.505-.593.834-.944 1.58-.944.746 0 1.119.417 1.58.944.46.526 1.075 1.25 2.237 1.25 1.163 0 1.734-.658 2.238-1.25.505-.593.834-.944 1.58-.944.746 0 1.12.417 1.58.944.256.328.559.616.9.855a.444.444 0 00.482-.746 3.114 3.114 0 01-.724-.702C16.59 1.457 15.976.777 14.835.777c-1.14 0-1.733.658-2.238 1.25-.505.593-.834.944-1.58.944-.746 0-1.119-.417-1.58-.944C8.978 1.501 8.364.777 7.2.777s-1.734.658-2.238 1.25c-.505.593-.834.944-1.58.944-.746 0-1.119-.417-1.58-.944A3.73 3.73 0 00.64 1.017a.442.442 0 10-.395.79z" fill="#DDFFDF"/></svg>