<svg width="15" height="16" fill="none" xmlns="http://www.w3.org/2000/svg"><path d="M7.94 12.957h.878v2.402H7.94v-2.402zm-1.758 0h.879v2.402h-.88v-2.402z" fill="#DDFFDF"/><path d="M10.459.359H4.541a.44.44 0 00-.44.44v14.56h1.202v-2.842a.44.44 0 01.44-.44h3.515a.44.44 0 01.44.44v2.842h1.2V.799a.44.44 0 00-.439-.44zm-4.277 10.4a.44.44 0 01-.88 0V9.88a.44.44 0 01.88 0v.88zm0-2.636a.44.44 0 01-.88 0v-.88a.44.44 0 01.88 0v.88zm1.757 2.636a.44.44 0 01-.878 0V9.88a.44.44 0 01.878 0v.88zm0-2.636a.44.44 0 01-.878 0v-.88a.44.44 0 01.878 0v.88zm1.758 2.636a.44.44 0 01-.879 0V9.88a.44.44 0 01.88 0v.88zm0-2.636a.44.44 0 01-.879 0v-.88a.44.44 0 01.88 0v.88zM6.182 5.486a.44.44 0 01-.88 0v-.88a.44.44 0 01.88 0v.88zm1.757 0a.44.44 0 01-.878 0v-.88a.44.44 0 01.878 0v.88zm1.758 0a.44.44 0 01-.879 0v-.88a.44.44 0 01.88 0v.88zM6.182 2.849a.44.44 0 01-.88 0V1.97a.44.44 0 01.88 0v.88zm1.757 0a.44.44 0 01-.878 0V1.97a.44.44 0 01.878 0v.88zm1.758 0a.44.44 0 01-.879 0V1.97a.44.44 0 01.88 0v.88zm4.863 3.369h-2.783v9.14h2.784A.44.44 0 0015 14.92V6.658a.44.44 0 00-.44-.44zm-.732 5.713a.44.44 0 01-.879 0v-.879a.44.44 0 01.88 0v.88zm0-2.637a.44.44 0 11-.879 0v-.878a.44.44 0 01.88 0v.878zM.44 6.218a.44.44 0 00-.44.44v8.261c0 .243.197.44.44.44h2.783v-9.14H.439zm1.61 5.713a.44.44 0 01-.878 0v-.879a.44.44 0 01.879 0v.88zm0-2.637a.44.44 0 01-.878 0v-.878a.44.44 0 01.879 0v.878z" fill="#DDFFDF"/></svg>