<svg width="18" height="18" fill="none" xmlns="http://www.w3.org/2000/svg"><path d="M8.882 6.6c.17.063.336-.09.28-.253-.386-1.122-1.78-1.54-3.077-.545-.682.523-.939.634-.945.637.45.425.963 1.85 2.084 2.007 1.235.212 2.328-.936 1.434-1.461a3.986 3.986 0 00-2.023-.546 4.04 4.04 0 012.247.162zm5.592-.798c-2.238-1.717-3.665.99-2.778.722a4.04 4.04 0 012.01-.085c-1.17 0-2.25.507-2.97 1.332.06-1.297.149-2.108.252-2.712.598-.02 1.396-.475 1.834-1.273.754-1.276.404-2.584.292-3.41-.59.543-3.166-.092-4.187 1.56-.452.73-.32 1.619.154 2.269.15.206.51.107.52-.143.044-1.086.617-1.907 1.684-2.362a4.787 4.787 0 00-.956 1.92c-.252 1.057-.516 1.75-.613 5.118-.01.341.283.624.645.62a.648.648 0 00.587-.389c.153-.347.402-.706.808-1.036a1.77 1.77 0 001.579.513c1.116-.157 1.637-1.585 2.084-2.007-.006-.003-.263-.114-.945-.637zm3.291 4.196c-.7-.449-1.462-.13-1.811.061l-4.39 3.034h-2.57l-.642-.606h2.36c.71 0 1.505-.437 1.505-1.214 0-.825-.795-1.214-1.505-1.214h-.884c-.657 0-1.425.056-1.966-.218a4.011 4.011 0 00-1.74-.388c-1.06 0-2.011.4-2.662 1.03L0 13.7l3.855 3.64 1.285-1.82h6.072c.648 0 1.273-.224 1.757-.63l4.84-4.06a.514.514 0 00-.044-.832z" fill="#DDFFDF"/></svg>